<?xml version="1.0" encoding="UTF-8"?>
<svg id="Calque_2" data-name="Calque 2" xmlns="http://www.w3.org/2000/svg" viewBox="0 0 23.14 14.73">
  <defs>
    <style>
      .cls-1 {
        fill: #fff;
      }
    </style>
  </defs>
  <g id="Calque_1-2" data-name="Calque 1">
    <path class="cls-1" d="M14.43,7.53c0,1.39-.29,2.64-.87,3.73-.58,1.08-1.41,1.93-2.49,2.54-1.08,.62-2.31,.92-3.71,.92-1,0-1.95-.19-2.86-.58-.91-.39-1.69-.91-2.35-1.57-.66-.66-1.18-1.44-1.57-2.35-.39-.91-.58-1.86-.58-2.86s.19-1.95,.58-2.86c.39-.91,.91-1.69,1.57-2.35,.66-.66,1.44-1.18,2.35-1.57,.91-.39,1.86-.58,2.86-.58,1.92,0,3.56,.64,4.93,1.93l-2,1.92c-.78-.76-1.76-1.14-2.93-1.14-.82,0-1.59,.21-2.29,.62-.7,.42-1.25,.98-1.66,1.7-.41,.71-.61,1.49-.61,2.33s.2,1.62,.61,2.34c.41,.71,.96,1.27,1.66,1.69,.7,.42,1.47,.62,2.29,.62,.56,0,1.06-.08,1.53-.23,.47-.15,.85-.34,1.16-.57,.3-.23,.56-.5,.78-.79,.23-.29,.39-.57,.49-.83,.11-.26,.18-.51,.22-.74H7.36v-2.53h6.95c.08,.42,.12,.83,.12,1.23Zm8.71-1.23v2.11h-2.1v2.1h-2.11v-2.1h-2.1v-2.11h2.1v-2.1h2.11v2.1h2.1Z"/>
  </g>
</svg>