<svg width="55" height="36" viewBox="0 0 55 36" fill="none" xmlns="http://www.w3.org/2000/svg">
<path d="M8.26831 15.2109C8.26831 14.4609 7.96362 13.7344 7.42456 13.2656C6.93237 12.7969 6.323 12.6328 5.33862 12.6328H4.94019V17.7891H5.33862C6.323 17.7891 6.95581 17.6016 7.42456 17.1797C7.96362 16.6875 8.26831 15.9609 8.26831 15.2109ZM49.8933 13.6875C49.8933 12.9375 49.3777 12.5391 48.4168 12.5391H47.948V14.9063H48.3933C49.3777 14.9063 49.8933 14.4844 49.8933 13.6875ZM9.83862 15.2109C9.83862 16.3594 9.323 17.4609 8.43237 18.2109C7.68237 18.8438 6.81519 19.1016 5.64331 19.1016H3.41675V11.2969H5.64331C8.12769 11.2969 9.83862 12.9141 9.83862 15.2109ZM10.5417 19.1016V11.2969H12.0652V19.1016H10.5417ZM18.0417 16.7344C18.0417 18.2578 16.9402 19.3125 15.3464 19.3125C14.198 19.3125 13.3542 18.8438 12.6511 17.8125L13.6355 16.875C13.9871 17.5547 14.573 17.9062 15.2996 17.9062C15.9792 17.9062 16.4714 17.4375 16.4714 16.8047C16.4714 16.4766 16.3308 16.1953 16.0261 16.0078C15.8621 15.8906 15.5574 15.7734 14.9714 15.5625C13.5417 15.0469 13.0496 14.4844 13.0496 13.4063C13.0496 12.1406 14.1042 11.1797 15.4871 11.1797C16.3308 11.1797 17.1277 11.4609 17.7839 12.0469L16.9871 13.0781C16.5886 12.6328 16.2136 12.4453 15.7449 12.4453C15.0886 12.4453 14.6199 12.8203 14.6199 13.3125C14.6199 13.7344 14.8777 13.9688 15.7917 14.2969C17.5261 14.9297 18.0417 15.4922 18.0417 16.7344ZM24.5574 18.8438C23.8777 19.1719 23.3152 19.2891 22.6589 19.2891C20.3386 19.2891 18.5339 17.5078 18.5339 15.2109C18.5339 12.9375 20.3855 11.1328 22.6824 11.1328C23.3386 11.1328 23.9011 11.2734 24.5574 11.6016V13.4063C23.9246 12.7734 23.3855 12.5156 22.6589 12.5156C21.2292 12.5156 20.1042 13.7109 20.1042 15.2109C20.1042 16.7813 21.1824 17.9062 22.7292 17.9062C23.4089 17.9062 23.948 17.6484 24.5574 17.0391V18.8438ZM53.4324 33C53.4324 33.8203 52.7527 34.5 51.9324 34.5H15.1589C36.4871 30.4922 49.6824 22.9922 53.4324 20.6484V33ZM33.4871 15.2578C33.4871 17.6016 31.5886 19.5 29.2449 19.5C26.9011 19.5 25.0027 17.6016 25.0027 15.2578C25.0027 12.9141 26.9011 11.0156 29.2449 11.0156C31.5886 11.0156 33.4871 12.9141 33.4871 15.2578ZM37.0496 19.3125H36.2292L32.9011 11.2969H34.5652L36.6511 16.5469L38.7605 11.2969H40.4246L37.0496 19.3125ZM41.1042 19.1016V11.2969H45.4168V12.6328H42.6277V14.3672H45.323V15.6797H42.6277V17.7891H45.4168V19.1016H41.1042ZM50.2683 19.1016L48.1589 15.9844H47.948V19.1016H46.4246V11.2969H48.698C50.4558 11.2969 51.4636 12.1406 51.4636 13.6172C51.4636 14.8125 50.8308 15.5859 49.6824 15.8203L52.1433 19.1016H50.2683ZM54.9324 3.14062C54.9324 1.40625 53.5496 0 51.8386 0H4.02612C2.31519 0 0.932373 1.40625 0.932373 3.14062V32.8594C0.932373 34.5938 2.31519 36 4.02612 36H51.8386C53.5496 36 54.9324 34.5938 54.9324 32.8594V3.14062Z" fill="#EBEAED"/>
</svg>
