<svg width="55" height="36" viewBox="0 0 55 36" fill="none" xmlns="http://www.w3.org/2000/svg">
<path d="M3.72144 12.9844L4.75269 10.4531L5.80737 12.9844H3.72144ZM18.2761 25.3125H14.5496V24.0469H17.8777V22.7578H14.5496V21.6094H18.3699L20.0105 23.4609L18.2761 25.3125ZM21.9792 23.4844L24.2996 20.9766V26.0625L21.9792 23.4844ZM28.7292 22.3828C28.7292 22.9688 28.3074 23.2266 27.7683 23.2266H25.823V21.6094H27.7917C28.3074 21.6094 28.7292 21.8203 28.7292 22.3828ZM35.5027 22.2891C35.5027 22.9219 35.0105 23.0391 34.4949 23.0391H32.5964V21.6094H34.5183C34.9871 21.6094 35.5027 21.7031 35.5027 22.2891ZM28.9871 11.3672C28.9871 11.9766 28.4949 12.0938 27.9792 12.0938H26.0808V10.6875H28.0027C28.4714 10.6875 28.9871 10.7813 28.9871 11.3672ZM39.7449 12.9844L40.7996 10.4531L41.8308 12.9844H39.7449ZM17.3152 9.35156H14.7839L12.9792 13.6641L10.9871 9.35156H8.50269V15.375L5.92456 9.35156H3.67456L0.955811 15.7031H2.59644L3.18237 14.2969H6.34644L6.93237 15.7031H10.0261V10.7344L12.2292 15.7031H13.5652L15.7683 10.7344V15.7031H17.3152V9.35156ZM30.3464 22.3828C30.3464 20.7891 29.2214 20.2969 27.7917 20.2969H22.9402L21.0183 22.3828L19.1433 20.2969H13.0496V26.6484H19.0496L20.9949 24.5391L22.8699 26.6484H25.823V24.5156C27.5574 24.5156 30.3464 24.9375 30.3464 22.3828ZM23.5261 14.3906H19.9636V13.125H23.4324V11.8359H19.9636V10.6875H23.5261V9.35156H18.4402V15.7031H23.5261V14.3906ZM54.9324 27.4922C54.2527 27.8203 53.4558 27.8906 52.7058 27.8906H48.7683V27.3281C48.2293 27.75 47.3855 27.8906 46.7058 27.8906H34.3074V25.8516C34.3074 25.5938 34.2605 25.5703 34.0261 25.5703H33.8386V27.8906H29.7605V25.5C29.0808 25.7813 28.3542 25.8047 27.6511 25.8047H27.1589V27.8906H22.2136L20.9949 26.5078L19.7058 27.8906H11.6667V19.0313H19.8464L21.0183 20.3906L22.2839 19.0313H27.7683C28.4011 19.0313 29.4089 19.0781 29.9011 19.5469V19.0313H34.7996C35.4558 19.0313 36.2761 19.1484 36.8386 19.5469V19.0313H44.2449V19.5469C44.6902 19.125 45.4871 19.0313 46.073 19.0313H50.2214V19.5469C50.7605 19.1484 51.4636 19.0313 52.1199 19.0313H54.9324V3.14062C54.9324 1.42969 53.5496 0 51.8386 0H4.02612C2.31519 0 0.932373 1.42969 0.932373 3.14062V12.3047L2.7605 8.10938H6.72144L7.23706 9.14063V8.10938H11.8777L12.8855 10.3828L13.8933 8.10938H28.6121C29.2214 8.10938 29.8542 8.20312 30.323 8.625V8.10938H34.3542V8.625C35.1277 8.20312 36.0417 8.10938 36.9089 8.10938H42.7449L43.2839 9.14063V8.10938H47.6199L48.2058 9.14063V8.10938H52.4246V16.9688H48.1589L47.3621 15.6094V16.9688H42.0418L41.4558 15.5391H40.1433L39.5574 16.9688C37.9636 16.9688 35.8777 17.2266 34.3542 16.4297V16.9688H27.8152V14.9531C27.8152 14.7891 27.7917 14.625 27.5808 14.625L27.3464 14.6484V16.9688H14.6667V15.8672L14.198 16.9688H11.5496L11.1042 15.8906V16.9688H5.99487L5.40894 15.5391H4.11987L3.53394 16.9688H0.932373V32.8594C0.932373 34.5703 2.31519 36 4.02612 36H51.8386C53.5496 36 54.9324 34.5703 54.9324 32.8594V27.4922ZM37.1667 22.0078C37.1667 20.5078 35.8777 20.2969 34.6824 20.2969H31.073V26.6484H32.5964V24.3281H34.2136C35.2214 24.3281 35.573 24.5156 35.573 25.5938V26.6484H37.0964V25.3828C37.0964 24.5625 36.9324 24 36.0886 23.6953C36.7917 23.4141 37.1667 22.7109 37.1667 22.0078ZM30.6746 11.0625C30.6746 9.5625 29.3855 9.375 28.1667 9.375L24.5808 9.35156V15.7031H26.0808V13.4063H27.7214C29.4089 13.4063 29.0574 14.3438 29.0808 15.7031H30.6042V14.4609C30.6042 13.6172 30.4636 13.0781 29.5964 12.7734C30.2761 12.4922 30.6746 11.7891 30.6746 11.0625ZM43.073 25.3359L39.5339 25.3125V24.0469H43.0027V22.7578H39.5339V21.6094H43.073V20.2969H38.0105V26.6484H43.073V25.3359ZM33.0886 9.35156H31.5417V15.7031H33.0886V9.35156ZM49.3308 24.6328C49.3308 21.5859 45.3933 23.6016 45.3933 22.2188C45.3933 21.7031 45.8386 21.6328 46.2371 21.6328H49.0261V20.2969H45.9793C44.8074 20.2969 43.823 20.9063 43.823 22.1953C43.823 25.2188 47.7371 23.3438 47.7371 24.7031C47.7371 25.1953 47.3152 25.2891 46.9402 25.2891H43.9871V26.6484H46.9402C48.2996 26.6484 49.3308 26.1328 49.3308 24.6328ZM54.9324 23.4609C53.9714 22.1953 51.323 23.3438 51.323 22.2188C51.323 21.7031 51.7449 21.6328 52.1668 21.6328H54.9324V20.2969H51.9089C50.7371 20.2969 49.7293 20.9063 49.7293 22.1953C49.7293 25.2188 53.6433 23.3672 53.6433 24.7031C53.6433 25.1719 53.2449 25.2891 52.8699 25.2891H49.9402V26.6484H52.8699C53.6199 26.6484 54.4871 26.4844 54.9324 25.8281V23.4609ZM51.0652 9.375H49.5183V13.7813L46.8464 9.375H44.5261V15.375L41.9714 9.375H39.698L37.5417 14.3672H36.8621C35.6433 14.3672 35.3855 13.6172 35.3855 12.5391C35.3855 10.3594 36.8386 10.7109 38.4324 10.7344V9.35156H36.9558C34.7996 9.35156 33.8386 10.4531 33.8386 12.5859C33.8386 14.625 34.7761 15.7031 36.8621 15.7031H38.6199L39.2058 14.2969H42.3464L42.9558 15.7031H46.0496V10.9453L48.9089 15.7031H51.0652V9.375Z" fill="#EBEAED"/>
</svg>
