<svg width="55" height="36" viewBox="0 0 55 36" fill="none" xmlns="http://www.w3.org/2000/svg">
<path d="M47.2214 20.2031C47.2214 20.2031 47.0574 19.4531 46.3308 15.8672L46.0496 14.5781C45.8621 15.1406 45.5105 16.0312 45.5339 16.0078C44.3152 19.3359 43.9871 20.2031 43.9871 20.2031C44.7605 20.2031 46.6121 20.2031 47.2214 20.2031ZM13.3777 18.6797C11.7839 14.25 8.24487 11.9062 3.93237 10.8047L3.97925 10.5H10.2605C11.1042 10.5 11.8308 10.8047 12.0183 11.7656L13.3777 18.6797ZM17.573 10.5H21.698L15.5808 25.5234H11.4792L8.31519 13.5703C10.5652 14.4844 12.5574 16.5 13.3777 18.6797L13.7761 20.7656L17.573 10.5ZM20.8308 25.5469L23.2683 10.5H27.1589L24.7214 25.5469H20.8308ZM38.8308 10.875L38.2917 14.1328L37.9402 13.9453C37.2371 13.6172 36.2996 13.3594 35.0339 13.3828C33.5105 13.3828 32.8074 14.0391 32.8074 14.6719C32.8074 15.375 33.6277 15.8672 34.9871 16.5469C37.2136 17.625 38.2683 18.9141 38.2683 20.625C38.2214 23.7422 35.573 25.7813 31.4949 25.7578C29.7371 25.7578 28.073 25.3828 27.1589 24.9609L27.698 21.5859L28.2136 21.8438C29.4558 22.4297 30.2996 22.6172 31.8699 22.6172C32.9714 22.6172 34.1902 22.1719 34.1902 21.1641C34.1902 20.5078 33.698 20.0156 32.1746 19.2891C30.698 18.5625 28.7527 17.3672 28.7761 15.2109C28.7996 12.2813 31.4949 10.2422 35.3386 10.2422C36.8386 10.2422 38.0574 10.5703 38.8308 10.875ZM48.7917 10.5L51.9324 25.5469H48.323C47.9714 23.8125 47.8542 23.2969 47.8542 23.2969C47.2918 23.2969 43.3308 23.2969 42.8855 23.2969C42.8855 23.2969 42.7214 23.6953 42.0652 25.5469H37.9871L43.7527 11.7656C44.1511 10.7813 44.8543 10.5 45.7918 10.5H48.7917ZM54.9324 3C54.9324 1.35938 53.573 0 51.9324 0H3.93237C2.29175 0 0.932373 1.35938 0.932373 3V33C0.932373 34.6406 2.29175 36 3.93237 36H51.9324C53.573 36 54.9324 34.6406 54.9324 33V3Z" fill="#EBEAED"/>
</svg>
