<svg width="55" height="36" viewBox="0 0 55 36" fill="none" xmlns="http://www.w3.org/2000/svg">
<path d="M27.1589 4.99219C20.9246 10.1016 20.8777 19.7344 27.1589 24.8438C25.2136 26.1328 22.9167 26.8359 20.573 26.8359C13.9871 26.8359 8.64331 21.4922 8.64331 14.9063C8.64331 8.34375 13.9871 3 20.573 3C22.9167 3 25.2136 3.70312 27.1589 4.99219ZM27.9324 5.55469C33.9792 10.3125 34.0027 19.5469 27.9324 24.2813C21.8621 19.5469 21.8855 10.3125 27.9324 5.55469ZM28.7058 4.99219C30.6511 3.70312 32.948 3 35.2917 3C41.8777 3 47.2214 8.34375 47.2214 14.9063C47.2214 21.4922 41.8777 26.8359 35.2917 26.8359C32.9714 26.8359 30.6511 26.1328 28.7058 24.8438C35.0105 19.7578 34.9168 10.1016 28.7058 4.99219ZM46.073 21.9141V22.3125H46.0027V21.9141H45.8386V21.8438H46.2371V21.9141H46.073ZM46.7527 22.3125V21.9609L46.6355 22.2656H46.5417L46.4011 21.9609V22.3125H46.3308V21.8438H46.448L46.5886 22.1484L46.7293 21.8438H46.8464V22.3125H46.7527ZM46.5652 32.625V32.6016C46.5417 32.6016 46.5417 32.6016 46.5183 32.6016H46.448V32.6719H46.5183C46.5417 32.6719 46.5417 32.6719 46.5652 32.6719C46.5652 32.6484 46.5652 32.6484 46.5652 32.625ZM46.5652 32.8359L46.4714 32.7188H46.448V32.8359H46.3777V32.5312H46.5183C46.5652 32.5312 46.5886 32.5547 46.6121 32.5547C46.6355 32.5781 46.6355 32.6016 46.6355 32.625C46.6355 32.6484 46.6355 32.6719 46.6121 32.6953C46.5886 32.6953 46.5886 32.7188 46.5417 32.7188L46.6355 32.8359H46.5652ZM16.9871 31.2422C16.9871 31.8047 17.3386 32.25 17.948 32.25C18.5105 32.25 18.8855 31.8281 18.8855 31.2422C18.8855 30.6797 18.5105 30.2344 17.948 30.2344C17.3386 30.2344 16.9871 30.6797 16.9871 31.2422ZM28.073 30.2109C27.6042 30.2109 27.323 30.5156 27.2527 30.9609H28.8933C28.823 30.4688 28.5183 30.2109 28.073 30.2109ZM36.4167 31.2422C36.4167 31.8047 36.7683 32.25 37.3543 32.25C37.9402 32.25 38.3152 31.8281 38.3152 31.2422C38.3152 30.6797 37.9402 30.2344 37.3543 30.2344C36.7683 30.2344 36.4167 30.6797 36.4167 31.2422ZM42.7917 31.2422C42.7917 31.8047 43.1668 32.25 43.7527 32.25C44.3152 32.25 44.7136 31.8281 44.7136 31.2422C44.7136 30.6797 44.3152 30.2344 43.7527 30.2344C43.1668 30.2344 42.7917 30.6797 42.7917 31.2422ZM46.4949 32.9297C46.5417 32.9297 46.5652 32.9297 46.5886 32.9062C46.6355 32.9062 46.6589 32.8828 46.6824 32.8594C46.7058 32.8359 46.7058 32.8125 46.7293 32.7891C46.7293 32.7422 46.7527 32.7188 46.7527 32.6953C46.7527 32.6484 46.7293 32.625 46.7293 32.6016C46.7058 32.5547 46.7058 32.5312 46.6824 32.5078C46.6589 32.4844 46.6355 32.4844 46.5886 32.4609C46.5652 32.4375 46.5417 32.4375 46.4949 32.4375C46.4714 32.4375 46.448 32.4375 46.4011 32.4609C46.3777 32.4844 46.3542 32.4844 46.3308 32.5078C46.3074 32.5312 46.2839 32.5547 46.2839 32.6016C46.2605 32.625 46.2605 32.6484 46.2605 32.6953C46.2605 32.7188 46.2605 32.7422 46.2839 32.7891C46.2839 32.8125 46.3074 32.8359 46.3308 32.8594C46.3542 32.8828 46.3777 32.9062 46.4011 32.9062C46.448 32.9297 46.4714 32.9297 46.4949 32.9297ZM14.9714 32.8359V31.0781C14.9714 30.5391 14.7371 30.2344 14.2683 30.2344C13.823 30.2344 13.4949 30.5156 13.4949 31.0781V32.8359H12.8152V31.0781C12.8152 30.5391 12.5808 30.2344 12.1121 30.2344C11.6433 30.2344 11.3386 30.5156 11.3386 31.0781V32.8359H10.6355V29.6719H11.3386V30.0469C11.5964 29.6953 11.9246 29.5781 12.2527 29.5781C12.7449 29.5781 13.0964 29.7891 13.3074 30.1406C13.5886 29.6953 14.0105 29.5781 14.4089 29.5781C15.1824 29.6016 15.6746 30.0938 15.6746 30.8438V32.8359H14.9714ZM18.8621 32.8359V32.4375C18.6277 32.7422 18.2996 32.9062 17.8542 32.9062C16.9636 32.9062 16.2839 32.2031 16.2839 31.2422C16.2839 30.2813 16.9636 29.5781 17.8542 29.5781C18.2996 29.5781 18.6277 29.7656 18.8621 30.0469V29.6719H19.5417V32.8359H18.8621ZM23.0339 31.875C23.0339 32.4844 22.4949 32.9062 21.5808 32.9062C21.0652 32.9062 20.5964 32.7656 20.2214 32.5078L20.5261 31.9688C20.7605 32.1328 21.1121 32.2969 21.5808 32.2969C22.0496 32.2969 22.3074 32.1562 22.3074 31.8984C22.3074 31.7344 22.1433 31.6406 21.7449 31.5703L21.4402 31.5234C20.7136 31.4297 20.3386 31.125 20.3386 30.6094C20.3386 29.9766 20.8542 29.5781 21.6511 29.5781C22.1667 29.5781 22.6121 29.6953 22.9402 29.9063L22.6589 30.4688C22.448 30.3516 22.073 30.2109 21.6511 30.2109C21.2761 30.2109 21.0652 30.3516 21.0652 30.5625C21.0652 30.7734 21.2996 30.8438 21.6042 30.8906L21.9324 30.9375C22.6121 31.0313 23.0339 31.3125 23.0339 31.875ZM26.0808 32.6719C25.8699 32.8125 25.5183 32.9062 25.2371 32.9062C24.4167 32.9062 24.1355 32.4609 24.1355 31.7344V30.3047H23.4792V29.6719H24.1355V28.7109H24.8386V29.6719H25.9636V30.3047H24.8386V31.7344C24.8386 32.0391 24.9324 32.25 25.2839 32.25C25.4714 32.25 25.6824 32.2031 25.8933 32.0859L26.0808 32.6719ZM28.0964 29.5781C28.9871 29.5781 29.5964 30.2578 29.5964 31.2422C29.5964 31.3359 29.5964 31.4297 29.5964 31.5234H27.2292C27.3464 32.0859 27.7449 32.2969 28.1902 32.2969C28.4949 32.2969 28.8464 32.1562 29.1042 31.9453L29.4324 32.4609C29.0574 32.7891 28.6121 32.9062 28.1433 32.9062C27.2058 32.9062 26.5261 32.25 26.5261 31.2422C26.5261 30.2578 27.1824 29.5781 28.0964 29.5781ZM31.823 29.5781C31.9636 29.5781 32.1511 29.6016 32.3152 29.6719L32.1042 30.3281C31.9636 30.2578 31.823 30.2344 31.6824 30.2344C31.2136 30.2344 31.0027 30.5391 31.0027 31.0547V32.8359H30.2996V29.6719H31.0027V30.0469C31.1667 29.7656 31.4246 29.5781 31.823 29.5781ZM32.5261 31.2422C32.5261 30.2813 33.1824 29.5781 34.2136 29.5781C34.6824 29.5781 35.0105 29.6953 35.3386 29.9531L35.0105 30.5156C34.7527 30.3281 34.4949 30.2344 34.1902 30.2344C33.6277 30.2344 33.2292 30.6328 33.2292 31.2422C33.2292 31.8516 33.6277 32.25 34.1902 32.25C34.4949 32.2734 34.7527 32.1562 35.0105 31.9688L35.3386 32.5312C35.0105 32.8125 34.6824 32.9062 34.2136 32.9062C33.1824 32.9062 32.5261 32.2031 32.5261 31.2422ZM38.2683 32.8359V32.4375C38.0574 32.7422 37.7293 32.9062 37.2839 32.9062C36.3933 32.9062 35.6902 32.2031 35.6902 31.2422C35.6902 30.2813 36.3933 29.5781 37.2839 29.5781C37.7293 29.5781 38.0574 29.7656 38.2683 30.0469V29.6719H38.9714V32.8359H38.2683ZM41.3855 29.5781C41.5261 29.5781 41.7371 29.6016 41.8777 29.6719L41.6667 30.3281C41.5261 30.2578 41.3855 30.2344 41.2449 30.2344C40.7996 30.2344 40.5652 30.5391 40.5652 31.0547V32.8359H39.8855V29.6719H40.5652V30.0469C40.7293 29.7656 40.9871 29.5781 41.3855 29.5781ZM44.6668 32.8359V32.4375C44.4558 32.7422 44.1277 32.9062 43.6589 32.9062C42.7918 32.9062 42.0886 32.2031 42.0886 31.2422C42.0886 30.2813 42.7918 29.5781 43.6589 29.5781C44.1277 29.5781 44.4558 29.7656 44.6668 30.0469V28.3828H45.3464V32.8359H44.6668ZM46.4949 32.3672C46.5417 32.3672 46.5886 32.3906 46.6355 32.3906C46.6589 32.4141 46.7058 32.4375 46.7293 32.4609C46.7527 32.4844 46.7761 32.5312 46.7996 32.5547C46.823 32.6016 46.823 32.6484 46.823 32.6953C46.823 32.7188 46.823 32.7656 46.7996 32.8125C46.7761 32.8359 46.7527 32.8828 46.7293 32.9062C46.7058 32.9297 46.6589 32.9531 46.6355 32.9766C46.5886 33 46.5417 33 46.4949 33C46.4714 33 46.4246 33 46.3777 32.9766C46.3308 32.9531 46.3074 32.9297 46.2839 32.9062C46.2371 32.8828 46.2136 32.8359 46.2136 32.8125C46.1902 32.7656 46.1902 32.7188 46.1902 32.6953C46.1902 32.6484 46.1902 32.6016 46.2136 32.5547C46.2136 32.5312 46.2371 32.4844 46.2839 32.4609C46.3074 32.4375 46.3308 32.4141 46.3777 32.3906C46.4246 32.3906 46.4714 32.3672 46.4949 32.3672ZM54.9324 3C54.9324 1.35938 53.573 0 51.9324 0H3.93237C2.29175 0 0.932373 1.35938 0.932373 3V33C0.932373 34.6406 2.29175 36 3.93237 36H51.9324C53.573 36 54.9324 34.6406 54.9324 33V3Z" fill="#EBEAED"/>
</svg>
