<svg width="55" height="36" viewBox="0 0 55 36" fill="none" xmlns="http://www.w3.org/2000/svg">
<path d="M17.9521 18.2344C17.9521 18.8125 17.749 19.2969 17.3428 19.6875C16.9521 20.0625 16.4678 20.25 15.8896 20.25C15.4365 20.25 15.0693 20.125 14.7881 19.875C14.5225 19.625 14.3896 19.2812 14.3896 18.8438C14.3896 18.2656 14.585 17.7813 14.9756 17.3906C15.3662 16.9844 15.8506 16.7813 16.4287 16.7813C16.8662 16.7813 17.2256 16.9141 17.5068 17.1797C17.8037 17.4297 17.9521 17.7812 17.9521 18.2344ZM36.3506 14.7422C36.3506 15.3984 36.1787 15.8438 35.835 16.0781C35.4912 16.3125 34.9756 16.4297 34.2881 16.4297L33.5381 16.4531L33.9365 13.9453C33.9678 13.7734 34.0693 13.6875 34.2412 13.6875H34.6631C35.0068 13.6875 35.2803 13.7031 35.4834 13.7344C35.6865 13.7656 35.8818 13.8672 36.0693 14.0391C36.2568 14.1953 36.3506 14.4297 36.3506 14.7422ZM44.5771 18.2344C44.5771 18.7969 44.374 19.2734 43.9678 19.6641C43.5771 20.0547 43.1006 20.25 42.5381 20.25C42.085 20.25 41.7178 20.125 41.4365 19.875C41.1553 19.625 41.0147 19.2812 41.0147 18.8438C41.0147 18.2656 41.21 17.7813 41.6006 17.3906C41.9912 16.9844 42.4756 16.7813 43.0537 16.7813C43.4912 16.7813 43.8506 16.9141 44.1318 17.1797C44.4287 17.4297 44.5771 17.7812 44.5771 18.2344ZM12.5146 14.2266C12.5146 13.3047 12.21 12.6406 11.6006 12.2344C11.0068 11.8125 10.2256 11.6016 9.25684 11.6016H5.50684C5.20996 11.6016 5.0459 11.75 5.01465 12.0469L3.49121 21.6094C3.47559 21.7031 3.49902 21.7891 3.56152 21.8672C3.62402 21.9453 3.70215 21.9844 3.7959 21.9844H5.57715C5.88965 21.9844 6.06152 21.8359 6.09277 21.5391L6.51465 18.9609C6.53027 18.8359 6.58496 18.7344 6.67871 18.6563C6.77246 18.5781 6.88965 18.5312 7.03027 18.5156C7.1709 18.4844 7.30371 18.4688 7.42871 18.4688C7.55371 18.4688 7.70215 18.4766 7.87402 18.4922C8.0459 18.5078 8.15527 18.5156 8.20215 18.5156C9.5459 18.5156 10.6006 18.1406 11.3662 17.3906C12.1318 16.625 12.5146 15.5703 12.5146 14.2266ZM19.7568 21.5391L20.7178 15.4219C20.7334 15.3281 20.71 15.2422 20.6475 15.1641C20.585 15.0859 20.5068 15.0469 20.4131 15.0469H18.6318C18.4131 15.0469 18.2803 15.3047 18.2334 15.8203C17.8115 15.1953 17.0693 14.8828 16.0068 14.8828C14.8818 14.8828 13.9209 15.3047 13.124 16.1484C12.3428 16.9922 11.9521 17.9844 11.9521 19.125C11.9521 20.0469 12.2178 20.7813 12.749 21.3281C13.2959 21.875 14.0225 22.1484 14.9287 22.1484C15.3662 22.1484 15.8193 22.0547 16.2881 21.8672C16.7568 21.6797 17.1318 21.4297 17.4131 21.1172C17.3506 21.3047 17.3193 21.4688 17.3193 21.6094C17.3193 21.8594 17.4209 21.9844 17.624 21.9844H19.2412C19.5381 21.9844 19.71 21.8359 19.7568 21.5391ZM30.1865 15.5391C30.2178 15.5078 30.2334 15.4531 30.2334 15.375C30.2334 15.2969 30.2022 15.2266 30.1397 15.1641C30.0772 15.0859 30.0068 15.0469 29.9287 15.0469H28.124C27.9521 15.0469 27.8115 15.125 27.7021 15.2813L25.2178 18.9375L24.1865 15.4219C24.1084 15.1719 23.9365 15.0469 23.6709 15.0469H21.9131C21.835 15.0469 21.7647 15.0859 21.7022 15.1641C21.6397 15.2266 21.6084 15.2969 21.6084 15.375C21.6084 15.4063 21.7568 15.8672 22.0537 16.7578C22.3662 17.6484 22.6943 18.6094 23.0381 19.6406C23.3975 20.6719 23.585 21.2188 23.6006 21.2813C22.3193 23.0313 21.6787 23.9688 21.6787 24.0938C21.6787 24.2969 21.7803 24.3984 21.9834 24.3984H23.7881C23.96 24.3984 24.1006 24.3203 24.21 24.1641L30.1865 15.5391ZM39.1397 14.2266C39.1397 13.3047 38.835 12.6406 38.2256 12.2344C37.6318 11.8125 36.8506 11.6016 35.8818 11.6016H32.1553C31.8428 11.6016 31.6709 11.75 31.6396 12.0469L30.1162 21.6094C30.1006 21.7031 30.124 21.7891 30.1865 21.8672C30.249 21.9453 30.3272 21.9844 30.4209 21.9844H32.3428C32.5303 21.9844 32.6553 21.8828 32.7178 21.6797L33.1397 18.9609C33.1553 18.8359 33.21 18.7344 33.3037 18.6563C33.3975 18.5781 33.5146 18.5312 33.6553 18.5156C33.7959 18.4844 33.9287 18.4688 34.0537 18.4688C34.1787 18.4688 34.3271 18.4766 34.499 18.4922C34.6709 18.5078 34.7803 18.5156 34.8271 18.5156C36.1709 18.5156 37.2256 18.1406 37.9912 17.3906C38.7568 16.625 39.1397 15.5703 39.1397 14.2266ZM46.3818 21.5391L47.3428 15.4219C47.3584 15.3281 47.335 15.2422 47.2725 15.1641C47.21 15.0859 47.1318 15.0469 47.0381 15.0469H45.2568C45.0381 15.0469 44.9053 15.3047 44.8584 15.8203C44.4522 15.1953 43.71 14.8828 42.6318 14.8828C41.5068 14.8828 40.5459 15.3047 39.749 16.1484C38.9678 16.9922 38.5771 17.9844 38.5771 19.125C38.5771 20.0469 38.8428 20.7813 39.374 21.3281C39.9209 21.875 40.6475 22.1484 41.5537 22.1484C42.0068 22.1484 42.4678 22.0547 42.9365 21.8672C43.4053 21.6797 43.7725 21.4297 44.0381 21.1172C44.0381 21.1328 44.0225 21.2031 43.9912 21.3281C43.96 21.4531 43.9443 21.5469 43.9443 21.6094C43.9443 21.8594 44.0459 21.9844 44.249 21.9844H45.8662C46.1631 21.9844 46.335 21.8359 46.3818 21.5391ZM51.4912 11.9531V11.9297C51.4912 11.7109 51.3896 11.6016 51.1865 11.6016H49.4522C49.2803 11.6016 49.1787 11.6875 49.1475 11.8594L47.624 21.6094L47.6006 21.6563C47.6006 21.7344 47.6318 21.8125 47.6943 21.8906C47.7568 21.9531 47.835 21.9844 47.9287 21.9844H49.4756C49.7725 21.9844 49.9365 21.8359 49.9678 21.5391L51.4912 11.9531ZM9.67871 15.0938C9.60059 15.6406 9.39746 16 9.06934 16.1719C8.74121 16.3438 8.27246 16.4297 7.66309 16.4297L6.88965 16.4531L7.28809 13.9453C7.31934 13.7734 7.4209 13.6875 7.59277 13.6875H8.03809C8.66309 13.6875 9.11621 13.7813 9.39746 13.9688C9.67871 14.1406 9.77246 14.5156 9.67871 15.0938ZM54.4912 3V33C54.4912 33.8125 54.1943 34.5156 53.6006 35.1094C53.0068 35.7031 52.3037 36 51.4912 36H3.49121C2.67871 36 1.97559 35.7031 1.38184 35.1094C0.788086 34.5156 0.491211 33.8125 0.491211 33V3C0.491211 2.1875 0.788086 1.48438 1.38184 0.890625C1.97559 0.296875 2.67871 0 3.49121 0H51.4912C52.3037 0 53.0068 0.296875 53.6006 0.890625C54.1943 1.48438 54.4912 2.1875 54.4912 3Z" fill="#EBEAED"/>
</svg>
